<svg width="210" height="54" viewBox="0 0 210 54" fill="none" xmlns="http://www.w3.org/2000/svg">
<mask id="mask0_4001_32" style="mask-type:luminance" maskUnits="userSpaceOnUse" x="0" y="0" width="210" height="54">
<path d="M210 0.500031H0V53.5H210V0.500031Z" fill="white"/>
</mask>
<g mask="url(#mask0_4001_32)">
<path d="M73.0565 24.9326C73.0188 24.9326 72.9984 24.9227 72.9912 24.901C72.9872 24.8877 72.9843 24.8741 72.9825 24.8603V24.4643C72.984 24.45 72.9868 24.4359 72.9912 24.4222C72.9984 24.4005 73.0188 24.3888 73.0565 24.3888H73.2597C73.3889 24.3888 73.5499 24.3815 73.74 24.3671C73.9306 24.3512 74.1178 24.3074 74.2955 24.2369C74.4721 24.1684 74.6291 24.0577 74.7527 23.9145C74.8873 23.7472 74.955 23.536 74.9427 23.3219V13.5021C74.9479 13.3326 74.9046 13.1652 74.818 13.0192C74.7378 12.8903 74.6304 12.7803 74.5033 12.6969C74.3747 12.6125 74.2322 12.5513 74.0824 12.5161C73.9399 12.481 73.7938 12.4625 73.647 12.4609H73.0574C73.0197 12.4609 72.9993 12.451 72.9921 12.4293C72.9879 12.416 72.9851 12.4024 72.9835 12.3886V11.9925C72.9849 11.9783 72.9878 11.9642 72.9921 11.9505C72.9993 11.9288 73.0197 11.917 73.0574 11.917H73.2606L77.0585 11.8533C77.4168 11.8476 77.8032 11.8432 78.2177 11.8402C78.6323 11.8372 79.0191 11.8352 79.3783 11.8343C79.767 11.8343 80.1153 11.8402 80.4215 11.8488C80.7276 11.8574 81.0251 11.8764 81.3077 11.9039C81.5902 11.9315 81.8778 11.9677 82.1694 12.0093C82.461 12.0509 82.7817 12.1105 83.1386 12.1842C83.8187 12.3235 84.4664 12.5895 85.0475 12.9681C85.6281 13.3415 86.1428 13.808 86.5705 14.3488C86.9994 14.8909 87.3396 15.4971 87.5787 16.145C87.8186 16.7906 87.9414 17.4737 87.9416 18.1622C87.9454 18.8001 87.8524 19.4349 87.6658 20.0451C87.4874 20.6251 87.2278 21.1771 86.8948 21.6848C86.565 22.1855 86.1703 22.6406 85.721 23.0384C85.2686 23.4415 84.7664 23.7854 84.2266 24.0619C83.6784 24.3442 83.0985 24.5607 82.4991 24.707C81.8855 24.8588 81.2555 24.9347 80.6233 24.9331L73.0565 24.9326ZM77.5751 23.5054C77.5705 23.5829 77.5836 23.6605 77.6132 23.7323C77.6427 23.8041 77.6882 23.8684 77.746 23.9204C77.8784 24.0267 78.0336 24.101 78.1996 24.1374C78.4162 24.186 78.6374 24.2117 78.8595 24.2143C79.1135 24.2215 79.3774 24.2242 79.6545 24.2242C81.4838 24.2242 82.8561 23.7206 83.7713 22.7133C84.6865 21.7061 85.144 20.2385 85.1437 18.3105C85.1522 17.5232 85.0477 16.7387 84.8335 15.9809C84.6486 15.3151 84.3281 14.6944 83.8919 14.1576C83.4632 13.6421 82.9184 13.2348 82.3018 12.9691C81.587 12.672 80.8175 12.5277 80.0432 12.5454H77.8059C77.7727 12.5412 77.739 12.5443 77.7072 12.5545C77.6754 12.5647 77.6462 12.5819 77.6218 12.6047C77.5863 12.6612 77.5703 12.7277 77.5764 12.7941V23.5054H77.5751Z" fill="white"/>
<path d="M89.3135 24.4643C89.315 24.45 89.3179 24.4359 89.3221 24.4222C89.3294 24.4019 89.3511 24.3906 89.3874 24.3906H89.5906C89.8505 24.3716 90.1144 24.3617 90.3856 24.3589C90.6357 24.3581 90.8845 24.3236 91.1254 24.2563C91.3361 24.1981 91.5252 24.08 91.6696 23.9163C91.8281 23.6958 91.9031 23.4264 91.8814 23.1559V13.7236C91.8903 13.5187 91.839 13.3156 91.7336 13.1395C91.6351 12.9895 91.5018 12.8654 91.3449 12.7778C91.1751 12.6813 90.9916 12.611 90.8006 12.5694C90.5974 12.5242 90.3902 12.4853 90.1811 12.4537H89.9865C89.9561 12.4537 89.9357 12.4451 89.9271 12.4261C89.9185 12.4125 89.9135 12.3969 89.9126 12.3809V12.0192C89.9139 12.0032 89.9188 11.9878 89.9271 11.974C89.9334 11.9643 89.9423 11.9565 89.9528 11.9516C89.9633 11.9467 89.975 11.9449 89.9865 11.9464H99.1924C99.2766 11.9396 99.3607 11.9604 99.4319 12.0057C99.4932 12.0794 99.5255 12.173 99.5226 12.2688L99.6895 15.2159C99.6895 15.2462 99.6632 15.2711 99.611 15.2855C99.5645 15.3001 99.5161 15.3078 99.4673 15.3086C99.4174 15.3087 99.3677 15.3023 99.3194 15.2896C99.2801 15.2837 99.2441 15.2642 99.2178 15.2345C99.1677 15.1519 99.1367 15.0592 99.1271 14.9632C99.1081 14.8434 99.0881 14.71 99.0677 14.5627C99.0453 14.4075 99.015 14.2536 98.977 14.1015C98.938 13.9466 98.8769 13.798 98.7956 13.6603C98.711 13.5216 98.5995 13.4011 98.4677 13.3059C98.3089 13.1959 98.1266 13.1246 97.9352 13.0974H94.6357C94.6194 13.0953 94.6029 13.0969 94.5873 13.1022C94.5717 13.1074 94.5576 13.1162 94.546 13.1278C94.5343 13.1394 94.5256 13.1535 94.5203 13.169C94.515 13.1845 94.5134 13.201 94.5156 13.2172V17.6115C94.514 17.6238 94.5153 17.6362 94.5193 17.6479C94.5233 17.6596 94.5299 17.6702 94.5387 17.6789C94.5474 17.6876 94.5581 17.6942 94.5698 17.6982C94.5815 17.7022 94.594 17.7035 94.6063 17.702H97.2495C97.4038 17.7024 97.5575 17.6825 97.7066 17.6427C97.855 17.6041 97.9915 17.5296 98.1039 17.4257C98.2299 17.3042 98.3249 17.1545 98.381 16.989C98.4595 16.7561 98.4958 16.5112 98.4885 16.2657C98.4885 16.215 98.5117 16.192 98.5611 16.192H98.9239C98.934 16.1904 98.9443 16.1913 98.9539 16.1945C98.9636 16.1976 98.9724 16.203 98.9796 16.2102C98.9868 16.2173 98.9922 16.2261 98.9954 16.2358C98.9986 16.2454 98.9994 16.2556 98.9979 16.2657V20.4836C98.9993 20.4953 98.9976 20.5072 98.9927 20.5179C98.9878 20.5286 98.98 20.5377 98.9702 20.5442C98.9561 20.5516 98.9407 20.556 98.9248 20.5573H98.562C98.5505 20.5588 98.5388 20.557 98.5283 20.5521C98.5178 20.5473 98.5089 20.5395 98.5026 20.5298C98.4952 20.5157 98.4908 20.5003 98.4894 20.4846C98.4977 20.2025 98.4614 19.9209 98.382 19.65C98.3279 19.4649 98.2317 19.2947 98.1008 19.1527C97.9917 19.0371 97.8526 18.954 97.6989 18.9126C97.5436 18.8722 97.3837 18.8523 97.2232 18.8534H94.6081C94.5958 18.8519 94.5833 18.8532 94.5716 18.8571C94.5599 18.8611 94.5493 18.8678 94.5405 18.8765C94.5318 18.8852 94.5251 18.8958 94.5211 18.9075C94.5171 18.9192 94.5158 18.9316 94.5174 18.9438V22.9674C94.5108 23.1148 94.5397 23.2616 94.6017 23.3955C94.6516 23.4975 94.7305 23.5825 94.8285 23.6401C94.9297 23.6975 95.041 23.7348 95.1564 23.75C95.2846 23.7689 95.4141 23.7781 95.5437 23.7776H98.0677C98.3837 23.789 98.6958 23.7043 98.9625 23.5348C99.196 23.3789 99.3946 23.1764 99.5457 22.9403C99.69 22.715 99.8004 22.47 99.8736 22.2129C99.9358 22.0018 99.9804 21.7861 100.007 21.5678C100.012 21.5295 100.026 21.4928 100.047 21.4601C100.067 21.4274 100.095 21.3995 100.127 21.3783C100.195 21.332 100.276 21.3077 100.358 21.3087C100.397 21.3116 100.435 21.3246 100.468 21.3462C100.512 21.3709 100.534 21.3984 100.534 21.4285L100.229 24.7993C100.217 24.832 100.2 24.8625 100.178 24.8897C100.169 24.9024 100.157 24.9128 100.144 24.9201C100.13 24.9274 100.115 24.9314 100.1 24.9317H89.3874C89.3511 24.9317 89.3294 24.92 89.3221 24.8983C89.3178 24.885 89.3149 24.8714 89.3135 24.8576V24.4616V24.4643Z" fill="white"/>
<path d="M103.078 24.684C102.998 24.684 102.949 24.6202 102.93 24.49C102.864 23.9132 102.81 23.4647 102.774 23.1451C102.738 22.8255 102.71 22.5868 102.696 22.4263C102.681 22.2658 102.671 22.1645 102.668 22.1184C102.665 22.0723 102.662 22.0402 102.662 22.0216C102.668 21.9402 102.699 21.8627 102.753 21.8006C102.777 21.7642 102.81 21.7344 102.849 21.7135C102.887 21.6927 102.931 21.6814 102.974 21.6808C103.013 21.6852 103.051 21.6973 103.085 21.7164C103.119 21.7355 103.149 21.7612 103.173 21.792C103.249 21.8711 103.317 21.9572 103.376 22.0492C103.439 22.1433 103.495 22.2418 103.543 22.344C103.577 22.4121 103.606 22.4827 103.63 22.5551C103.77 22.8589 103.945 23.1452 104.152 23.4082C104.331 23.6295 104.549 23.8167 104.795 23.9607C105.048 24.1034 105.323 24.2044 105.609 24.2599C105.949 24.3261 106.296 24.3576 106.643 24.354C107.196 24.3868 107.743 24.2194 108.182 23.8824C108.379 23.6861 108.531 23.449 108.625 23.1879C108.72 22.9268 108.756 22.6481 108.731 22.3716C108.736 21.993 108.646 21.6191 108.468 21.2843C108.286 20.9493 108.053 20.6438 107.779 20.3779C107.48 20.0851 107.155 19.8186 106.81 19.5813C106.447 19.3296 106.074 19.0746 105.692 18.8164C105.309 18.5581 104.937 18.2895 104.575 18.0107C104.219 17.7381 103.893 17.4278 103.604 17.0853C103.321 16.7462 103.089 16.3671 102.917 15.9605C102.735 15.5199 102.646 15.0471 102.653 14.5708C102.65 14.2702 102.708 13.9722 102.824 13.6947C102.937 13.4271 103.091 13.1787 103.281 12.9587C103.477 12.7327 103.702 12.5329 103.95 12.3642C104.206 12.1886 104.479 12.0403 104.766 11.9216C105.051 11.8035 105.347 11.7127 105.648 11.6503C105.936 11.591 106.229 11.5607 106.522 11.5599C106.753 11.5604 106.983 11.5802 107.211 11.6191C107.442 11.6598 107.669 11.7059 107.894 11.7624C108.118 11.8189 108.345 11.8782 108.574 11.9433C108.803 12.0084 109.028 12.0676 109.249 12.1241L109.86 12.0689C109.883 12.0665 109.906 12.072 109.925 12.0847C109.945 12.0975 109.959 12.1165 109.966 12.1386C109.979 12.1792 109.99 12.2207 109.997 12.2629L110.266 14.4275C110.266 14.4578 110.225 14.4795 110.146 14.4912C110.085 14.5022 110.023 14.5085 109.962 14.5102C109.906 14.5088 109.85 14.5045 109.795 14.4971C109.75 14.4961 109.705 14.4847 109.665 14.4637C109.636 14.4295 109.613 14.3909 109.596 14.3493C109.568 14.2901 109.539 14.2263 109.509 14.1553C109.478 14.0844 109.445 14.012 109.411 13.9383C109.381 13.8711 109.345 13.8063 109.304 13.7444C109.028 13.307 108.636 12.9549 108.17 12.7276C107.695 12.5003 107.173 12.3851 106.645 12.3908C106.418 12.3892 106.191 12.4168 105.971 12.4731C105.773 12.5229 105.588 12.6124 105.427 12.7362C105.272 12.858 105.148 13.014 105.064 13.1919C104.969 13.4 104.922 13.627 104.928 13.8556C104.923 14.2124 105.014 14.564 105.192 14.8737C105.379 15.1922 105.612 15.4808 105.885 15.73C106.191 16.0132 106.518 16.2733 106.863 16.508C107.23 16.7612 107.603 17.0173 107.981 17.2765C108.362 17.5383 108.733 17.8159 109.1 18.1111C109.461 18.4001 109.789 18.7273 110.079 19.0872C110.368 19.4467 110.602 19.8473 110.773 20.2757C110.955 20.7454 111.044 21.2456 111.037 21.749C111.039 22.0955 110.975 22.4392 110.846 22.7613C110.723 23.0714 110.549 23.3595 110.333 23.6144C110.113 23.8741 109.858 24.1023 109.576 24.2925C109.285 24.4899 108.974 24.6552 108.647 24.7857C108.319 24.9171 107.978 25.0173 107.63 25.085C107.294 25.1508 106.953 25.1847 106.61 25.1863C106.243 25.1925 105.876 25.1622 105.515 25.0958C105.243 25.0453 104.974 24.9763 104.711 24.8892C104.485 24.8124 104.297 24.7432 104.141 24.6826C104.019 24.6286 103.888 24.598 103.754 24.5922C103.726 24.591 103.698 24.5939 103.672 24.6008L103.078 24.684Z" fill="white"/>
<path d="M112.402 24.4643C112.403 24.45 112.406 24.4359 112.41 24.4222C112.417 24.4019 112.439 24.3906 112.476 24.3906H112.679C112.939 24.3716 113.203 24.3617 113.474 24.3589C113.724 24.3581 113.973 24.3236 114.213 24.2563C114.424 24.1981 114.613 24.08 114.758 23.9163C114.916 23.6958 114.991 23.4264 114.97 23.1559V13.7236C114.978 13.5187 114.927 13.3156 114.822 13.1395C114.723 12.9895 114.59 12.8654 114.433 12.7778C114.263 12.6813 114.08 12.611 113.889 12.5694C113.686 12.5242 113.478 12.4853 113.269 12.4537H113.075C113.044 12.4537 113.024 12.4451 113.015 12.4261C113.007 12.4125 113.002 12.3969 113.001 12.3809V12.0192C113.002 12.0032 113.007 11.9878 113.015 11.974C113.022 11.9643 113.03 11.9565 113.041 11.9516C113.051 11.9467 113.063 11.9449 113.075 11.9464H122.281C122.365 11.9396 122.449 11.9604 122.52 12.0057C122.581 12.0794 122.614 12.173 122.611 12.2688L122.778 15.2159C122.778 15.2462 122.751 15.2711 122.699 15.2855C122.653 15.3001 122.604 15.3078 122.555 15.3086C122.506 15.3087 122.456 15.3023 122.408 15.2896C122.368 15.2837 122.332 15.2642 122.306 15.2345C122.256 15.1519 122.225 15.0592 122.215 14.9632C122.196 14.8434 122.176 14.71 122.156 14.5627C122.135 14.4153 122.102 14.262 122.065 14.1015C122.026 13.9466 121.965 13.798 121.884 13.6603C121.799 13.5216 121.688 13.4011 121.556 13.3059C121.397 13.1959 121.215 13.1246 121.023 13.0974H117.724C117.708 13.0953 117.691 13.0969 117.675 13.1022C117.66 13.1074 117.646 13.1162 117.634 13.1278C117.622 13.1394 117.614 13.1535 117.608 13.169C117.603 13.1845 117.602 13.201 117.604 13.2172V17.6115C117.602 17.6238 117.603 17.6362 117.607 17.6479C117.611 17.6596 117.618 17.6702 117.627 17.6789C117.636 17.6876 117.646 17.6942 117.658 17.6982C117.67 17.7022 117.682 17.7035 117.694 17.702H120.338C120.492 17.7024 120.646 17.6825 120.795 17.6427C120.943 17.6041 121.08 17.5296 121.192 17.4257C121.318 17.3042 121.413 17.1545 121.469 16.989C121.548 16.7561 121.584 16.5112 121.577 16.2657C121.577 16.215 121.6 16.192 121.649 16.192H122.012C122.022 16.1904 122.032 16.1913 122.042 16.1945C122.052 16.1976 122.061 16.203 122.068 16.2102C122.075 16.2173 122.08 16.2261 122.084 16.2358C122.087 16.2454 122.088 16.2556 122.086 16.2657V20.4836C122.087 20.4953 122.086 20.5072 122.081 20.5179C122.076 20.5286 122.068 20.5377 122.058 20.5442C122.044 20.5516 122.029 20.556 122.013 20.5573H121.65C121.639 20.5588 121.627 20.557 121.616 20.5521C121.606 20.5473 121.597 20.5395 121.591 20.5298C121.583 20.5157 121.579 20.5003 121.578 20.4846C121.586 20.2025 121.55 19.9209 121.47 19.65C121.416 19.4649 121.32 19.2947 121.189 19.1527C121.08 19.0371 120.941 18.954 120.787 18.9126C120.632 18.8722 120.472 18.8523 120.311 18.8534H117.696C117.684 18.8519 117.671 18.8532 117.66 18.8571C117.648 18.8611 117.637 18.8678 117.629 18.8765C117.62 18.8852 117.613 18.8958 117.609 18.9075C117.605 18.9192 117.604 18.9316 117.605 18.9438V22.9674C117.599 23.1148 117.628 23.2616 117.69 23.3955C117.74 23.4975 117.819 23.5825 117.917 23.6401C118.018 23.6975 118.129 23.7348 118.245 23.75C118.373 23.7689 118.502 23.7781 118.632 23.7776H121.156C121.472 23.789 121.784 23.7043 122.051 23.5348C122.284 23.3789 122.483 23.1765 122.634 22.9403C122.778 22.715 122.889 22.47 122.962 22.2129C123.024 22.0019 123.069 21.7861 123.095 21.5678C123.1 21.5295 123.114 21.4928 123.135 21.4601C123.155 21.4274 123.183 21.3995 123.215 21.3783C123.283 21.332 123.364 21.3077 123.446 21.3087C123.485 21.3116 123.523 21.3246 123.556 21.3462C123.6 21.3709 123.622 21.3984 123.622 21.4285L123.317 24.7993C123.305 24.832 123.288 24.8625 123.266 24.8897C123.257 24.9024 123.246 24.9128 123.232 24.9201C123.218 24.9274 123.203 24.9314 123.188 24.9317H112.476C112.439 24.9317 112.417 24.92 112.41 24.8983C112.406 24.885 112.403 24.8714 112.402 24.8576V24.4616V24.4643Z" fill="white"/>
<path d="M125.313 24.4543C125.314 24.4399 125.318 24.4258 125.323 24.4123C125.329 24.3906 125.351 24.3806 125.387 24.3806C125.446 24.3787 125.504 24.3723 125.562 24.3617C125.642 24.3499 125.726 24.3372 125.812 24.3255C125.898 24.3137 125.979 24.2979 126.053 24.2834C126.127 24.269 126.179 24.259 126.209 24.2518C126.493 24.2102 126.753 24.0717 126.945 23.8598C127.088 23.6632 127.161 23.4245 127.152 23.1817V13.8235C127.166 13.5666 127.098 13.3119 126.957 13.0961C126.842 12.9295 126.688 12.7923 126.509 12.6955C126.358 12.6127 126.193 12.5569 126.023 12.5305C125.864 12.5102 125.759 12.4971 125.705 12.4971H125.354C125.324 12.4971 125.303 12.4898 125.293 12.4695C125.286 12.4556 125.281 12.4401 125.28 12.4243V12.0174C125.281 12.0034 125.284 11.9896 125.289 11.9767C125.295 11.9609 125.317 11.9491 125.354 11.9464H125.395C125.417 11.9464 125.462 11.9437 125.531 11.9392C125.6 11.9347 125.698 11.9333 125.827 11.9306C125.956 11.9279 126.137 11.922 126.371 11.9161C126.71 11.9103 127.072 11.9017 127.46 11.8886C127.847 11.8755 128.234 11.8642 128.629 11.8524C129.023 11.8406 129.412 11.828 129.798 11.8189C130.184 11.8099 130.537 11.8076 130.876 11.8076H131.808C132.315 11.8105 132.817 11.8944 133.297 12.0563C133.794 12.2174 134.259 12.465 134.669 12.7878C135.084 13.1159 135.427 13.5254 135.676 13.9908C135.946 14.5009 136.082 15.0711 136.069 15.6477C136.076 16.0161 136.019 16.383 135.903 16.7327C135.799 17.0351 135.644 17.3177 135.445 17.5686C135.247 17.8153 135.014 18.0312 134.752 18.2092C134.477 18.3985 134.185 18.5617 133.879 18.6965L136.679 23.1184C136.916 23.4964 137.199 23.8445 137.52 24.155C137.833 24.4604 138.217 24.6835 138.638 24.8042C138.688 24.816 138.717 24.8332 138.725 24.8549C138.736 24.8796 138.741 24.9063 138.74 24.9331C138.745 24.9674 138.74 25.0024 138.727 25.0346C138.714 25.0667 138.693 25.095 138.666 25.1166C138.594 25.1518 138.515 25.1674 138.435 25.1618C138.175 25.1618 137.881 25.145 137.552 25.1112C137.218 25.0764 136.886 25.0213 136.559 24.9462C136.235 24.872 135.918 24.7719 135.61 24.6469C135.335 24.5374 135.08 24.3814 134.858 24.1858C134.637 23.9874 134.436 23.7685 134.257 23.5321C134.054 23.269 133.849 22.9846 133.644 22.679C133.438 22.3734 133.235 22.0569 133.034 21.7296C132.833 21.4 132.64 21.079 132.451 20.7667C132.262 20.4543 132.083 20.1636 131.911 19.8919C131.74 19.6202 131.581 19.39 131.438 19.2006L129.998 19.0994H129.923C129.892 19.0973 129.861 19.1032 129.832 19.1165C129.818 19.1263 129.805 19.1391 129.796 19.1541C129.787 19.1781 129.784 19.2037 129.786 19.2291V23.1505C129.783 23.2978 129.805 23.4446 129.851 23.5845C129.895 23.7072 129.97 23.8163 130.069 23.901C130.185 24.0002 130.32 24.0741 130.466 24.118C130.66 24.1798 130.859 24.2234 131.061 24.2482C131.099 24.2554 131.152 24.2626 131.223 24.2758C131.295 24.2889 131.371 24.302 131.454 24.3164C131.537 24.3309 131.618 24.3467 131.7 24.3585C131.767 24.3702 131.835 24.3765 131.903 24.3775C131.94 24.3775 131.961 24.3861 131.968 24.4064C131.974 24.4209 131.976 24.4362 131.977 24.4516V24.8585C131.975 24.8745 131.971 24.89 131.962 24.9037C131.954 24.9227 131.933 24.9313 131.903 24.9313H125.388C125.357 24.9313 125.337 24.8861 125.328 24.8024C125.32 24.7188 125.314 24.6361 125.314 24.5624L125.313 24.4543ZM129.803 18.1816C129.808 18.2282 129.823 18.2733 129.845 18.3145C129.859 18.337 129.879 18.3553 129.902 18.3676C129.926 18.3798 129.952 18.3856 129.978 18.3842C130.034 18.39 130.118 18.4013 130.228 18.4158C130.381 18.4337 130.536 18.4414 130.691 18.4389C131.15 18.4551 131.607 18.3702 132.029 18.1902C132.359 18.0424 132.646 17.8122 132.861 17.522C133.069 17.235 133.213 16.9065 133.282 16.5591C133.36 16.1875 133.399 15.8086 133.398 15.4289C133.4 15.0306 133.334 14.6349 133.203 14.2589C133.084 13.9092 132.901 13.5846 132.663 13.3018C132.433 13.0322 132.15 12.8126 131.831 12.6567C131.499 12.4945 131.134 12.4123 130.764 12.4166C130.677 12.4166 130.609 12.4181 130.56 12.4211C130.51 12.427 130.464 12.4284 130.418 12.4297C130.372 12.4311 130.32 12.4369 130.26 12.4415C130.2 12.446 130.12 12.4487 130.014 12.4546C129.966 12.4561 129.918 12.4639 129.872 12.4776C129.844 12.483 129.819 12.4989 129.802 12.522C129.786 12.545 129.778 12.5736 129.782 12.602V17.9054L129.803 18.1816Z" fill="white"/>
<path d="M143.358 13.139C143.296 13.1213 143.232 13.1073 143.168 13.097H140.036C139.835 13.1329 139.648 13.2273 139.5 13.3682C139.369 13.5025 139.266 13.6606 139.195 13.8339C139.119 14.0191 139.063 14.2121 139.03 14.4094C138.992 14.6146 138.951 14.8127 138.909 15.0039C138.896 15.0591 138.885 15.1255 138.872 15.2019C138.869 15.2483 138.857 15.2935 138.835 15.3348C138.828 15.3448 138.818 15.3526 138.807 15.3577C138.795 15.3627 138.783 15.3648 138.77 15.3638H138.465C138.429 15.3638 138.41 15.3506 138.41 15.3262V15.0224L138.752 11.8714C138.765 11.8015 138.793 11.7352 138.835 11.6774C138.859 11.6466 138.889 11.6221 138.925 11.6063C138.96 11.5905 138.999 11.5838 139.038 11.587C139.082 11.5871 139.126 11.5996 139.163 11.6232C139.204 11.649 139.243 11.6793 139.278 11.7136C139.315 11.7471 139.35 11.7787 139.385 11.8104C139.415 11.8389 139.451 11.8606 139.491 11.8741C139.558 11.9031 139.628 11.9234 139.7 11.9347C139.772 11.9439 139.844 11.9482 139.916 11.9478H149.601C149.673 11.9482 149.746 11.9438 149.818 11.9347C149.89 11.9232 149.959 11.9028 150.026 11.8741C150.065 11.8609 150.101 11.8392 150.131 11.8104C150.165 11.7787 150.201 11.7466 150.237 11.7136C150.272 11.6796 150.311 11.6493 150.353 11.6232C150.39 11.5996 150.434 11.5871 150.478 11.587C150.517 11.5837 150.556 11.5903 150.591 11.6061C150.627 11.6219 150.658 11.6465 150.681 11.6774C150.722 11.7352 150.751 11.8015 150.763 11.8714L151.106 15.0224V15.3262C151.106 15.3506 151.089 15.3638 151.051 15.3638H150.746C150.733 15.365 150.721 15.3629 150.709 15.3579C150.698 15.3528 150.688 15.3449 150.68 15.3348C150.659 15.2935 150.646 15.2483 150.643 15.2019C150.631 15.1251 150.62 15.0586 150.607 15.0039C150.561 14.8131 150.524 14.6151 150.488 14.4094C150.453 14.2122 150.397 14.0193 150.321 13.8339C150.25 13.6603 150.146 13.5021 150.015 13.3682C149.867 13.2271 149.681 13.1327 149.48 13.097H146.337C146.274 13.1071 146.211 13.1212 146.149 13.139C146.096 13.155 146.07 13.2273 146.07 13.356V23.1383C146.066 23.3119 146.114 23.4827 146.206 23.6297C146.305 23.7803 146.432 23.9105 146.581 24.0131C146.751 24.1293 146.938 24.2195 147.135 24.2807C147.356 24.3486 147.584 24.394 147.815 24.4164C147.883 24.4222 147.97 24.4249 148.075 24.4249H148.343C148.355 24.4234 148.367 24.4253 148.378 24.4304C148.388 24.4356 148.397 24.4437 148.403 24.4539C148.411 24.4678 148.415 24.4832 148.416 24.4991V24.8608C148.415 24.8765 148.41 24.8919 148.403 24.906C148.397 24.9157 148.388 24.9235 148.377 24.9283C148.367 24.9332 148.355 24.935 148.343 24.9335H141.163C141.152 24.935 141.14 24.9332 141.13 24.9283C141.119 24.9235 141.11 24.9157 141.104 24.906C141.096 24.8922 141.091 24.8767 141.09 24.8608V24.4991C141.09 24.483 141.095 24.4675 141.104 24.4539C141.11 24.4437 141.119 24.4356 141.129 24.4304C141.14 24.4253 141.152 24.4234 141.163 24.4249H141.426C141.535 24.4249 141.622 24.4222 141.69 24.4164C141.921 24.3943 142.149 24.3489 142.37 24.2807C142.568 24.2198 142.755 24.1296 142.926 24.0131C143.074 23.9109 143.201 23.7806 143.299 23.6297C143.392 23.483 143.441 23.3122 143.438 23.1383V13.356C143.438 13.2273 143.412 13.155 143.359 13.139" fill="white"/>
<path d="M158.134 24.4543C158.135 24.4399 158.139 24.4258 158.144 24.4123C158.15 24.3906 158.172 24.3806 158.208 24.3806C158.267 24.3787 158.326 24.3723 158.383 24.3617C158.463 24.3499 158.547 24.3372 158.633 24.3255C158.719 24.3137 158.8 24.2979 158.874 24.2834C158.948 24.269 159 24.259 159.03 24.2518C159.314 24.2103 159.574 24.0717 159.766 23.8598C159.909 23.6632 159.982 23.4245 159.973 23.1817V13.8235C159.987 13.5666 159.919 13.312 159.779 13.0961C159.663 12.9295 159.509 12.7923 159.33 12.6955C159.179 12.612 159.013 12.5557 158.842 12.5292C158.683 12.5088 158.578 12.4957 158.524 12.4957H158.173C158.143 12.4957 158.122 12.4885 158.112 12.4681C158.105 12.4542 158.1 12.4388 158.099 12.4229V12.0161C158.1 12.0035 158.103 11.9911 158.107 11.9794C158.113 11.9636 158.135 11.9519 158.173 11.9491H158.213C158.235 11.9491 158.28 11.9464 158.349 11.9419C158.419 11.9374 158.516 11.936 158.645 11.9333C158.774 11.9306 158.955 11.9247 159.189 11.9189C159.529 11.913 159.89 11.9044 160.278 11.8913C160.666 11.8782 161.053 11.8669 161.447 11.8551C161.842 11.8434 162.23 11.8307 162.616 11.8217C163.002 11.8126 163.362 11.8085 163.701 11.8085H164.634C165.14 11.8114 165.643 11.8953 166.123 12.0572C166.62 12.2183 167.085 12.4659 167.495 12.7887C167.91 13.1168 168.252 13.5263 168.502 13.9917C168.772 14.5018 168.907 15.072 168.895 15.6486C168.901 16.017 168.845 16.3839 168.728 16.7336C168.624 17.036 168.47 17.3186 168.271 17.5695C168.073 17.8162 167.839 18.0321 167.578 18.2101C167.302 18.3995 167.01 18.5626 166.704 18.6975L169.504 23.1193C169.741 23.4973 170.024 23.8454 170.345 24.156C170.658 24.4613 171.043 24.6844 171.464 24.8052C171.513 24.8169 171.542 24.8341 171.551 24.8558C171.561 24.8805 171.566 24.9072 171.565 24.934C171.57 24.9683 171.565 25.0033 171.552 25.0355C171.539 25.0676 171.518 25.0959 171.491 25.1175C171.42 25.1527 171.34 25.1683 171.26 25.1628C171.001 25.1628 170.706 25.1459 170.377 25.1121C170.043 25.0773 169.712 25.0222 169.384 24.9471C169.061 24.8729 168.743 24.7728 168.436 24.6478C168.16 24.5383 167.905 24.3823 167.683 24.1867C167.462 23.9883 167.261 23.7694 167.082 23.533C166.879 23.2699 166.675 22.9855 166.469 22.6799C166.263 22.3743 166.06 22.0578 165.86 21.7305C165.658 21.4009 165.465 21.08 165.276 20.7676C165.088 20.4552 164.908 20.1645 164.737 19.8928C164.565 19.6211 164.406 19.391 164.264 19.2015L162.823 19.1003H162.749C162.718 19.0982 162.687 19.1041 162.659 19.1174C162.644 19.1272 162.631 19.14 162.622 19.155C162.613 19.179 162.61 19.2046 162.612 19.23V23.1514C162.609 23.2987 162.631 23.4455 162.678 23.5854C162.721 23.7081 162.796 23.8172 162.895 23.9019C163.011 24.0011 163.146 24.075 163.293 24.1189C163.486 24.1807 163.685 24.2243 163.887 24.2491C163.925 24.2563 163.978 24.2636 164.05 24.2767C164.121 24.2898 164.197 24.3029 164.28 24.3174C164.363 24.3318 164.444 24.3476 164.526 24.3594C164.593 24.3711 164.661 24.3774 164.729 24.3784C164.767 24.3784 164.787 24.387 164.794 24.4073C164.8 24.4218 164.803 24.4371 164.803 24.4525V24.8594C164.802 24.8754 164.797 24.8909 164.788 24.9046C164.78 24.9236 164.759 24.9322 164.729 24.9322H158.208C158.178 24.9322 158.157 24.887 158.149 24.8033C158.14 24.7197 158.134 24.637 158.134 24.5633V24.4543ZM162.624 18.1816C162.629 18.2282 162.644 18.2733 162.666 18.3145C162.68 18.337 162.7 18.3553 162.723 18.3676C162.747 18.3798 162.773 18.3856 162.8 18.3842C162.855 18.39 162.939 18.4013 163.049 18.4158C163.203 18.4337 163.357 18.4414 163.512 18.4389C163.971 18.4551 164.428 18.3702 164.85 18.1902C165.18 18.0423 165.467 17.8122 165.681 17.522C165.89 17.235 166.033 16.9065 166.102 16.5591C166.181 16.1875 166.22 15.8086 166.218 15.4289C166.221 15.0307 166.155 14.6349 166.024 14.2589C165.905 13.9092 165.722 13.5846 165.484 13.3018C165.254 13.0322 164.97 12.8127 164.651 12.6567C164.32 12.4945 163.954 12.4123 163.585 12.4166C163.498 12.4166 163.43 12.4181 163.381 12.4211C163.331 12.427 163.285 12.4284 163.239 12.4297C163.192 12.4311 163.14 12.4369 163.08 12.4415C163.02 12.446 162.941 12.4487 162.835 12.4546C162.787 12.4561 162.739 12.4639 162.693 12.4776C162.665 12.483 162.64 12.4989 162.623 12.522C162.606 12.545 162.599 12.5736 162.602 12.602V17.9054L162.624 18.1816Z" fill="white"/>
<path d="M179.186 25.1731C178.916 25.17 178.646 25.1516 178.378 25.118C178.019 25.0749 177.664 25.0072 177.315 24.9155C176.906 24.8095 176.503 24.6802 176.109 24.528C175.224 24.1893 174.414 23.6809 173.726 23.0316C173.354 22.6807 173.033 22.2808 172.77 21.8431C172.482 21.361 172.261 20.8424 172.113 20.3015C171.942 19.6676 171.86 19.0136 171.867 18.3575C171.862 17.1293 172.216 15.9263 172.884 14.8945C173.216 14.3858 173.615 13.9243 174.07 13.5224C174.542 13.1074 175.066 12.7546 175.628 12.4727C176.222 12.1767 176.849 11.9511 177.495 11.8004C178.188 11.6389 178.898 11.5587 179.61 11.5617C180.85 11.5593 182.071 11.8681 183.16 12.4595C183.679 12.7419 184.161 13.0867 184.596 13.4862C185.027 13.881 185.405 14.3301 185.719 14.8222C186.035 15.3151 186.281 15.8495 186.449 16.4099C186.79 17.5486 186.793 18.7612 186.459 19.9018C186.289 20.4729 186.047 21.0199 185.738 21.5293C185.418 22.0548 185.035 22.539 184.596 22.971C184.145 23.416 183.641 23.8044 183.095 24.1279C182.525 24.463 181.913 24.7214 181.274 24.8965C180.594 25.084 179.891 25.1769 179.185 25.1727M174.585 18.0166C174.586 18.5177 174.637 19.0176 174.738 19.5085C174.838 20.001 174.988 20.4822 175.186 20.9443C175.38 21.4012 175.625 21.8353 175.915 22.2386C176.196 22.6318 176.528 22.985 176.905 23.2884C177.275 23.5877 177.692 23.8246 178.139 23.9896C178.611 24.1619 179.109 24.2476 179.611 24.2427C180.289 24.2599 180.959 24.0962 181.552 23.7685C182.096 23.4562 182.562 23.0263 182.916 22.5104C183.289 21.9623 183.561 21.3528 183.72 20.7101C183.897 20.0228 183.986 19.3158 183.984 18.6061C183.984 18.0848 183.933 17.5647 183.831 17.0532C183.732 16.5573 183.583 16.0726 183.386 15.6065C183.198 15.1586 182.956 14.7348 182.667 14.3443C182.386 13.9667 182.053 13.6308 181.678 13.3465C181.303 13.0621 180.886 12.8394 180.44 12.6869C179.966 12.5268 179.467 12.4472 178.966 12.4514C178.519 12.4466 178.074 12.5214 177.653 12.6725C177.262 12.8147 176.895 13.0188 176.569 13.2769C176.24 13.5368 175.951 13.8438 175.713 14.1879C175.463 14.5459 175.256 14.9309 175.094 15.3357C174.925 15.7566 174.798 16.193 174.714 16.6386C174.628 17.093 174.586 17.5543 174.585 18.0166Z" fill="white"/>
<path d="M189.455 24.684C189.375 24.684 189.326 24.6202 189.307 24.49C189.24 23.9132 189.186 23.4647 189.151 23.1451C189.115 22.8255 189.087 22.5868 189.072 22.4263C189.058 22.2658 189.048 22.1645 189.044 22.1184C189.041 22.0723 189.039 22.0402 189.039 22.0216C189.044 21.9402 189.076 21.8627 189.129 21.8006C189.154 21.7642 189.187 21.7344 189.225 21.7135C189.264 21.6927 189.307 21.6814 189.351 21.6808C189.39 21.6852 189.427 21.6973 189.462 21.7164C189.496 21.7355 189.526 21.7612 189.55 21.792C189.625 21.8711 189.694 21.9572 189.753 22.0492C189.816 22.1433 189.871 22.2418 189.92 22.344C189.954 22.4121 189.983 22.4827 190.007 22.5551C190.147 22.8589 190.322 23.1452 190.529 23.4082C190.708 23.6295 190.926 23.8167 191.172 23.9607C191.425 24.1034 191.7 24.2044 191.985 24.2599C192.326 24.3261 192.673 24.3576 193.02 24.354C193.573 24.3868 194.12 24.2194 194.559 23.8824C194.756 23.6861 194.907 23.449 195.002 23.1879C195.097 22.9268 195.133 22.6481 195.107 22.3716C195.112 21.993 195.022 21.6191 194.845 21.2843C194.662 20.9493 194.43 20.6438 194.156 20.3779C193.856 20.0851 193.532 19.8186 193.187 19.5813C192.824 19.3296 192.451 19.0746 192.068 18.8164C191.685 18.5581 191.313 18.2895 190.95 18.0107C190.594 17.7381 190.268 17.4278 189.979 17.0853C189.696 16.7462 189.464 16.3671 189.292 15.9605C189.11 15.5199 189.02 15.0471 189.028 14.5708C189.025 14.2702 189.083 13.9722 189.199 13.6947C189.311 13.4271 189.466 13.1787 189.655 12.9587C189.852 12.7326 190.078 12.5328 190.326 12.3642C190.582 12.1886 190.855 12.0403 191.142 11.9216C191.427 11.8035 191.722 11.7127 192.024 11.6503C192.312 11.591 192.604 11.5607 192.898 11.5599C193.129 11.5604 193.359 11.5802 193.587 11.6191C193.817 11.6598 194.045 11.7059 194.27 11.7624C194.494 11.8189 194.721 11.8782 194.95 11.9433C195.179 12.0084 195.403 12.0676 195.624 12.1241L196.235 12.0689C196.258 12.0666 196.281 12.0722 196.301 12.0849C196.32 12.0976 196.334 12.1166 196.341 12.1386C196.355 12.1792 196.365 12.2207 196.373 12.2629L196.641 14.4275C196.641 14.4578 196.6 14.4795 196.521 14.4912C196.46 14.5022 196.398 14.5085 196.336 14.5102C196.281 14.5088 196.225 14.5045 196.169 14.4971C196.124 14.4961 196.08 14.4847 196.04 14.4637C196.011 14.4295 195.987 14.3909 195.97 14.3493C195.943 14.2901 195.914 14.2263 195.883 14.1553C195.853 14.0844 195.819 14.012 195.786 13.9383C195.755 13.8711 195.719 13.8063 195.679 13.7444C195.403 13.307 195.01 12.9549 194.545 12.7276C194.069 12.5003 193.548 12.3851 193.02 12.3908C192.793 12.3891 192.566 12.4168 192.346 12.4731C192.148 12.5229 191.963 12.6124 191.801 12.7362C191.647 12.858 191.522 13.014 191.439 13.1919C191.343 13.4 191.297 13.627 191.303 13.8556C191.298 14.2124 191.389 14.564 191.567 14.8737C191.753 15.1922 191.987 15.4808 192.26 15.73C192.566 16.0132 192.893 16.2733 193.238 16.508C193.605 16.7612 193.978 17.0173 194.356 17.2765C194.736 17.5383 195.108 17.8159 195.475 18.1111C195.836 18.4001 196.164 18.7273 196.454 19.0872C196.743 19.4467 196.977 19.8473 197.147 20.2757C197.329 20.7454 197.419 21.2456 197.411 21.749C197.414 22.0955 197.349 22.4392 197.221 22.7613C197.097 23.0714 196.924 23.3595 196.708 23.6144C196.488 23.8741 196.233 24.1023 195.95 24.2925C195.66 24.4898 195.348 24.6552 195.022 24.7857C194.693 24.9171 194.353 25.0173 194.005 25.085C193.669 25.1508 193.328 25.1847 192.985 25.1863C192.618 25.1925 192.251 25.1622 191.89 25.0958C191.618 25.0453 191.349 24.9763 191.086 24.8892C190.859 24.8124 190.671 24.7432 190.516 24.6826C190.394 24.6286 190.262 24.598 190.129 24.5922C190.101 24.591 190.073 24.5939 190.046 24.6008L189.455 24.684Z" fill="white"/>
<path d="M198.781 24.4643C198.783 24.45 198.786 24.4359 198.79 24.4222C198.797 24.4019 198.819 24.3906 198.855 24.3906H199.059C199.318 24.3716 199.582 24.3617 199.854 24.3589C200.104 24.3581 200.353 24.3236 200.593 24.2563C200.804 24.1981 200.993 24.08 201.138 23.9163C201.296 23.6958 201.371 23.4264 201.349 23.1559V13.7236C201.358 13.5187 201.307 13.3156 201.202 13.1395C201.103 12.9895 200.97 12.8654 200.813 12.7778C200.643 12.6813 200.46 12.611 200.269 12.5694C200.065 12.5242 199.858 12.4853 199.649 12.4537H199.455C199.424 12.4537 199.404 12.4451 199.395 12.4261C199.386 12.4125 199.381 12.3969 199.381 12.3809V12.0192C199.382 12.0032 199.387 11.9878 199.395 11.974C199.401 11.9643 199.41 11.9565 199.421 11.9516C199.431 11.9467 199.443 11.9449 199.455 11.9464H208.658C208.742 11.9396 208.826 11.9604 208.898 12.0057C208.959 12.0794 208.991 12.173 208.988 12.2688L209.155 15.2159C209.155 15.2462 209.129 15.2711 209.077 15.2855C209.03 15.3001 208.982 15.3078 208.933 15.3086C208.883 15.3087 208.833 15.3023 208.785 15.2896C208.746 15.2838 208.71 15.2642 208.684 15.2345C208.633 15.1519 208.602 15.0592 208.593 14.9632C208.574 14.8434 208.554 14.71 208.533 14.5627C208.513 14.4153 208.48 14.262 208.443 14.1015C208.404 13.9466 208.343 13.798 208.261 13.6603C208.177 13.5216 208.065 13.4011 207.933 13.3059C207.775 13.1959 207.592 13.1246 207.401 13.0974H204.102C204.086 13.0952 204.069 13.0968 204.054 13.102C204.038 13.1072 204.024 13.116 204.012 13.1276C204.001 13.1392 203.992 13.1533 203.987 13.1688C203.981 13.1844 203.98 13.201 203.982 13.2172V17.6115C203.98 17.6238 203.981 17.6362 203.985 17.6479C203.99 17.6596 203.996 17.6702 204.005 17.6789C204.014 17.6876 204.024 17.6942 204.036 17.6982C204.048 17.7022 204.06 17.7035 204.072 17.702H206.716C206.87 17.7024 207.024 17.6825 207.173 17.6427C207.321 17.6041 207.458 17.5296 207.57 17.4257C207.696 17.3042 207.791 17.1545 207.847 16.989C207.926 16.7561 207.962 16.5112 207.955 16.2657C207.955 16.215 207.978 16.192 208.027 16.192H208.39C208.4 16.1904 208.41 16.1913 208.42 16.1945C208.43 16.1976 208.439 16.203 208.446 16.2102C208.453 16.2173 208.458 16.2261 208.462 16.2358C208.465 16.2454 208.466 16.2556 208.464 16.2657V20.4836C208.466 20.4953 208.464 20.5072 208.459 20.5179C208.454 20.5286 208.446 20.5377 208.436 20.5442C208.422 20.5516 208.407 20.556 208.391 20.5573H208.028C208.017 20.5588 208.005 20.557 207.994 20.5521C207.984 20.5473 207.975 20.5395 207.969 20.5298C207.961 20.5157 207.957 20.5003 207.956 20.4846C207.964 20.2025 207.928 19.9209 207.848 19.65C207.794 19.4649 207.698 19.2947 207.567 19.1527C207.458 19.0371 207.319 18.954 207.165 18.9126C207.01 18.8722 206.85 18.8523 206.689 18.8534H204.077C204.065 18.8519 204.053 18.8532 204.041 18.8571C204.029 18.8611 204.019 18.8678 204.01 18.8765C204.001 18.8852 203.994 18.8958 203.99 18.9075C203.986 18.9192 203.985 18.9316 203.987 18.9438V22.9674C203.98 23.1148 204.009 23.2616 204.071 23.3955C204.121 23.4975 204.2 23.5825 204.298 23.6401C204.399 23.6975 204.51 23.7348 204.626 23.75C204.754 23.7689 204.883 23.7781 205.013 23.7776H207.537C207.853 23.789 208.165 23.7043 208.432 23.5348C208.665 23.3789 208.864 23.1765 209.015 22.9403C209.159 22.715 209.27 22.47 209.343 22.2129C209.405 22.0019 209.45 21.7861 209.476 21.5678C209.482 21.5295 209.495 21.4928 209.516 21.4601C209.537 21.4274 209.564 21.3995 209.597 21.3783C209.664 21.332 209.745 21.3077 209.827 21.3087C209.867 21.3116 209.905 21.3246 209.938 21.3462C209.981 21.3709 210.003 21.3984 210.003 21.4285L209.698 24.7993C209.686 24.832 209.669 24.8625 209.647 24.8897C209.639 24.9024 209.627 24.9128 209.613 24.9201C209.6 24.9274 209.584 24.9314 209.569 24.9317H198.855C198.819 24.9317 198.797 24.92 198.79 24.8983C198.786 24.8851 198.783 24.8714 198.781 24.8576V24.4616V24.4643Z" fill="white"/>
<path d="M16.5643 13.7796C18.1658 20.9534 19.863 25.9128 21.753 28.9395L21.7703 28.9295C24.1016 32.4707 27.9387 33.8849 31.6126 33.8849C35.2865 33.8849 39.1245 32.4721 41.4549 28.9336L41.4635 28.9395C41.5289 28.8355 41.5928 28.7238 41.6563 28.6158C41.7017 28.5407 41.747 28.4625 41.7924 28.3843C41.8241 28.3292 41.8563 28.2718 41.8867 28.2152C41.9493 28.104 42.0115 27.9942 42.0709 27.8798C43.7187 24.8056 45.2231 20.174 46.6519 13.7801C47.5672 9.68192 48.9324 5.72571 48.9455 5.68773L49.5157 4.04214L47.7749 4.18952C44.3222 4.60353 40.9702 5.6227 37.8736 7.19997C36.2043 5.05479 34.3669 3.04498 32.3787 1.18947L31.6153 0.49958L30.8538 1.18947C28.8632 3.04579 27.0232 5.05633 25.3511 7.20223C22.2514 5.62315 18.896 4.60276 15.4399 4.18816L13.6991 4.04078L14.2692 5.68638C14.2837 5.72526 15.649 9.68147 16.5643 13.7787M46.2228 6.7203C45.728 8.29944 45.0072 10.7439 44.4398 13.2882C44.0873 14.863 43.7289 16.3317 43.3649 17.6943C42.7063 14.6793 41.0712 11.6702 39.2533 9.06166C41.468 7.99119 43.8098 7.20448 46.2228 6.7203ZM31.6153 3.59547C33.1268 5.0865 34.5468 6.667 35.8675 8.32837C34.3303 9.27212 32.9023 10.3821 31.6094 11.6381C30.3189 10.3844 28.894 9.27587 27.3604 8.33244C28.6829 6.6705 30.1038 5.0887 31.6153 3.59547ZM34.3208 25.307C34.1107 25.8537 33.7391 26.3241 33.2551 26.6559C32.7711 26.9877 32.1975 27.1653 31.6101 27.1653C31.0227 27.1653 30.4491 26.9877 29.9651 26.6559C29.4811 26.3241 29.1095 25.8537 28.8994 25.307C27.9768 22.9832 28.8241 18.7146 31.6094 15.0609C34.3948 18.7151 35.2434 22.9819 34.3208 25.307ZM25.9866 10.162C27.4543 11.0391 28.8146 12.0833 30.0401 13.2738C30.0573 13.2896 30.0718 13.3086 30.0895 13.3244C26.8574 17.3891 25.4178 22.6858 26.7876 26.1402C27.1475 27.1145 27.8016 27.9537 28.6597 28.5422C29.5179 29.1308 30.5379 29.4399 31.5795 29.4268V29.4332L31.6099 29.4305L31.6407 29.4332V29.4273C32.6823 29.4403 33.7024 29.1313 34.5605 28.5427C35.4186 27.9541 36.0727 27.1149 36.4326 26.1406C37.8037 22.6862 36.3614 17.3896 33.1307 13.3248C33.1479 13.309 33.1624 13.29 33.1801 13.2742C34.4077 12.0818 35.7705 11.036 37.2409 10.158C39.4588 13.2842 41.4028 16.9917 41.4028 20.3914C41.4028 27.4232 37.7439 31.6226 31.6149 31.6226C25.4859 31.6226 21.8288 27.4227 21.8288 20.3914C21.8288 16.9935 23.77 13.2887 25.9866 10.1625M23.9755 9.06573C22.1549 11.6802 20.5171 14.6978 19.8612 17.7187C19.4956 16.348 19.1354 14.8711 18.7804 13.2882C18.2116 10.7434 17.4923 8.29944 16.9961 6.7203C19.4125 7.20549 21.7576 7.99356 23.9755 9.06573Z" fill="#CB9754"/>
<path d="M43.8143 31.3848C35.1711 36.6611 32.0289 46.8119 31.6098 48.2897C31.1907 46.8119 28.0484 36.6611 19.4035 31.3848C11.8017 26.7446 0 27.8721 0 27.8721C0 27.8721 1.90043 35.3768 6.173 38.5509C11.9931 42.8715 21.523 41.8131 21.523 41.8131C21.523 41.8131 12.9334 42.2399 7.32324 37.4939C3.81674 34.5268 2.96222 29.6221 2.96222 29.6221C2.96222 29.6221 12.634 29.68 18.1729 33.049C28.5573 39.3637 31.5735 53.4996 31.5735 53.4996L31.6098 51.4245L31.646 53.4996C31.646 53.4996 34.6622 39.3619 45.0461 33.0476C50.5851 29.6786 60.2582 29.6208 60.2582 29.6208C60.2582 29.6208 59.4037 34.5255 55.8972 37.493C50.2871 42.2399 41.6961 41.8122 41.6961 41.8122C41.6961 41.8122 51.2259 42.8706 57.0461 38.55C61.3186 35.3777 63.2204 27.8712 63.2204 27.8712C63.2204 27.8712 51.4178 26.7446 43.8143 31.3848Z" fill="#CB9754"/>
<path d="M72.0547 41.9375V41.7188C72.0547 41.6771 72.0755 41.6562 72.1172 41.6562H72.2891C72.5078 41.6406 72.7318 41.6328 72.9609 41.6328C73.1901 41.6276 73.3984 41.599 73.5859 41.5469C74.013 41.4219 74.2266 41.1094 74.2266 40.6094V32.375C74.2266 31.8594 73.9219 31.5312 73.3125 31.3906C73.1406 31.3542 72.9661 31.3229 72.7891 31.2969H72.625C72.5833 31.2969 72.5625 31.276 72.5625 31.2344V31.0469C72.5625 31.0052 72.5833 30.9844 72.625 30.9844H80.0547C80.1484 30.9844 80.2161 31.0026 80.2578 31.0391C80.2995 31.0703 80.3255 31.1432 80.3359 31.2578L80.4766 33.5234C80.4766 33.5755 80.4375 33.6016 80.3594 33.6016C80.2812 33.6016 80.224 33.5781 80.1875 33.5312C80.1562 33.4792 80.1146 33.2891 80.0625 32.9609C80.0156 32.6328 79.9271 32.3594 79.7969 32.1406C79.6667 31.9219 79.4375 31.7839 79.1094 31.7266H75.8516C75.7839 31.7266 75.75 31.7604 75.75 31.8281V35.8672C75.75 35.9193 75.776 35.9453 75.8281 35.9453H78.5312C79.2292 35.9453 79.5781 35.5391 79.5781 34.7266C79.5781 34.6849 79.599 34.6641 79.6406 34.6641H79.8281C79.8698 34.6641 79.8906 34.6849 79.8906 34.7266V38.0703C79.8906 38.112 79.8698 38.1328 79.8281 38.1328H79.6406C79.599 38.1328 79.5781 38.112 79.5781 38.0703C79.5781 37.2995 79.3542 36.8542 78.9062 36.7344C78.7812 36.7031 78.6484 36.6875 78.5078 36.6875H75.8281C75.776 36.6875 75.75 36.7135 75.75 36.7656V40.5703C75.75 40.9609 75.9297 41.1823 76.2891 41.2344C76.3932 41.25 76.5026 41.2578 76.6172 41.2578H79.2188C79.7552 41.2578 80.1719 41.0208 80.4688 40.5469C80.6823 40.2083 80.8125 39.8203 80.8594 39.3828C80.875 39.237 80.9531 39.1641 81.0938 39.1641C81.1562 39.1641 81.1875 39.1979 81.1875 39.2656L80.9297 41.8906C80.8984 41.9635 80.862 42 80.8203 42H72.1172C72.0755 42 72.0547 41.9792 72.0547 41.9375ZM89.9719 36.3984C89.9094 36.388 89.8182 36.3542 89.6984 36.2969C89.2661 36.099 88.9276 36 88.6828 36C88.438 36 88.1802 36.1536 87.9094 36.4609C87.6438 36.763 87.5109 37.0365 87.5109 37.2812V40.8125C87.5109 41.2031 87.7375 41.4635 88.1906 41.5938C88.3885 41.6458 88.5734 41.6849 88.7453 41.7109C88.9172 41.7318 89.0266 41.7526 89.0734 41.7734C89.1255 41.7943 89.1516 41.8359 89.1516 41.8984C89.1516 41.9557 89.1255 41.9896 89.0734 42H85.1594C85.1073 41.9896 85.0813 41.9531 85.0813 41.8906C85.0813 41.7969 85.2036 41.7344 85.4484 41.7031C86.0109 41.6198 86.2922 41.3229 86.2922 40.8125V36.6797C86.2922 36.4609 86.1724 36.3099 85.9328 36.2266C85.8286 36.1901 85.7167 36.1615 85.5969 36.1406C85.4771 36.1146 85.3807 36.0911 85.3078 36.0703C85.2401 36.0495 85.1958 36.0312 85.175 36.0156C85.1594 35.9948 85.1516 35.9557 85.1516 35.8984C85.1516 35.8359 85.1906 35.7839 85.2688 35.7422L87.2609 34.8047C87.3234 34.7734 87.3625 34.7578 87.3781 34.7578C87.4667 34.7578 87.5109 34.8203 87.5109 34.9453V36.2109C87.5109 36.2734 87.5266 36.3047 87.5578 36.3047C87.5995 36.3047 87.7063 36.1823 87.8781 35.9375C88.3729 35.2448 88.7818 34.8984 89.1047 34.8984C89.287 34.8984 89.5656 34.9714 89.9406 35.1172C90.3208 35.263 90.5109 35.3854 90.5109 35.4844C90.5109 35.6042 90.451 35.7865 90.3313 36.0312C90.2115 36.276 90.0917 36.3984 89.9719 36.3984ZM93.9047 38.4922C93.9047 37.4661 94.2667 36.5859 94.9906 35.8516C95.7198 35.112 96.5922 34.7422 97.6078 34.7422C98.6234 34.7422 99.5063 35.1016 100.256 35.8203C101.006 36.5339 101.381 37.4167 101.381 38.4688C101.381 39.5208 101.024 40.4089 100.311 41.1328C99.6026 41.8516 98.712 42.2109 97.6391 42.2109C96.5661 42.2109 95.6755 41.8464 94.9672 41.1172C94.2589 40.388 93.9047 39.513 93.9047 38.4922ZM95.85 40.5C96.3604 41.3594 97.0557 41.7891 97.9359 41.7891C98.6182 41.7891 99.1391 41.5156 99.4984 40.9688C99.863 40.4219 100.045 39.75 100.045 38.9531C100.045 38.1562 99.7901 37.3385 99.2797 36.5C98.7745 35.6615 98.0922 35.2422 97.2328 35.2422C96.6026 35.2422 96.1052 35.5156 95.7406 36.0625C95.3813 36.6042 95.2016 37.2943 95.2016 38.1328C95.2016 38.9661 95.4177 39.7552 95.85 40.5ZM107.22 35.9922C107.189 35.9922 107.173 36.0156 107.173 36.0625V40.375C107.173 40.6875 107.241 40.9323 107.377 41.1094C107.517 41.2865 107.694 41.375 107.908 41.375C108.121 41.375 108.306 41.3411 108.463 41.2734C108.624 41.2005 108.762 41.1224 108.877 41.0391C108.996 40.9557 109.103 40.8802 109.197 40.8125C109.291 40.7396 109.374 40.7031 109.447 40.7031C109.52 40.7031 109.556 40.7214 109.556 40.7578C109.556 40.8828 109.543 40.9635 109.517 41C108.892 41.8073 108.288 42.2109 107.705 42.2109C107.127 42.2109 106.689 42.0286 106.392 41.6641C106.101 41.2943 105.955 40.8542 105.955 40.3438V35.9922H105.369C105.223 35.9922 105.145 35.9453 105.134 35.8516C105.129 35.7578 105.145 35.6979 105.181 35.6719C105.457 35.4948 105.838 35.1771 106.322 34.7188C106.374 34.6615 106.444 34.5755 106.533 34.4609C106.621 34.3464 106.749 34.1901 106.916 33.9922C107.088 33.7943 107.218 33.6953 107.306 33.6953C107.395 33.6953 107.439 33.7318 107.439 33.8047C107.439 33.8151 107.351 34.1562 107.173 34.8281C107.173 34.9219 107.215 34.9714 107.298 34.9766H109.291C109.52 34.9766 109.634 35.2995 109.634 35.9453C109.634 35.9766 109.614 35.9922 109.572 35.9922H107.22ZM113.184 42C113.132 41.9896 113.106 41.9531 113.106 41.8906C113.106 41.7969 113.229 41.7344 113.473 41.7031C114.036 41.6198 114.317 41.3229 114.317 40.8125V36.6797C114.317 36.4609 114.197 36.3099 113.958 36.2266C113.854 36.1901 113.742 36.1615 113.622 36.1406C113.502 36.1146 113.406 36.0911 113.333 36.0703C113.265 36.0495 113.221 36.0312 113.2 36.0156C113.184 35.9948 113.177 35.9557 113.177 35.8984C113.177 35.8359 113.216 35.7839 113.294 35.7422L115.286 34.8047C115.348 34.7734 115.388 34.7578 115.403 34.7578C115.492 34.7578 115.536 34.8203 115.536 34.9453V40.8125C115.536 41.3229 115.817 41.6198 116.38 41.7031C116.624 41.7344 116.747 41.7891 116.747 41.8672C116.747 41.9453 116.721 41.9896 116.669 42H113.184ZM114.809 32.5625C114.596 32.5625 114.406 32.4948 114.239 32.3594C114.078 32.224 113.997 32.0365 113.997 31.7969C113.997 31.5521 114.075 31.3594 114.231 31.2188C114.388 31.0781 114.572 31.0078 114.786 31.0078C115.005 31.0078 115.187 31.0911 115.333 31.2578C115.484 31.4245 115.559 31.6042 115.559 31.7969C115.559 31.9896 115.489 32.1667 115.348 32.3281C115.208 32.4844 115.028 32.5625 114.809 32.5625ZM126.617 35.6953C126.617 36.0599 126.406 36.2422 125.984 36.2422C125.771 36.2422 125.589 36.1823 125.438 36.0625C125.292 35.9375 125.177 35.8333 125.094 35.75C125.016 35.6615 124.932 35.5807 124.844 35.5078C124.469 35.2005 124.01 35.1667 123.469 35.4062C122.932 35.6458 122.518 36.1562 122.227 36.9375C122.065 37.3698 121.984 37.7995 121.984 38.2266C121.984 39.1432 122.193 39.8932 122.609 40.4766C123.026 41.0547 123.664 41.3438 124.523 41.3438C125.164 41.3438 125.74 41.0573 126.25 40.4844C126.406 40.3125 126.5 40.2266 126.531 40.2266C126.562 40.2266 126.596 40.2422 126.633 40.2734C126.669 40.3047 126.688 40.3516 126.688 40.4141C126.688 40.4714 126.672 40.5156 126.641 40.5469C125.844 41.6562 124.841 42.2109 123.633 42.2109C122.758 42.2109 122.039 41.8854 121.477 41.2344C120.919 40.5833 120.641 39.8385 120.641 39C120.646 37.4479 121.021 36.3307 121.766 35.6484C122.422 35.0495 123.357 34.75 124.57 34.75C125.32 34.75 125.818 34.8255 126.062 34.9766C126.307 35.1276 126.479 35.3177 126.578 35.5469C126.604 35.599 126.617 35.6484 126.617 35.6953ZM141.045 41.6875C141.077 41.6875 141.092 41.7083 141.092 41.75V41.9375C141.092 41.9792 141.077 42 141.045 42H137.397C137.355 42 137.334 41.9792 137.334 41.9375V41.75C137.334 41.7083 137.355 41.6875 137.397 41.6875C138.251 41.6875 138.715 41.3203 138.787 40.5859C138.808 40.3724 138.829 40.0182 138.85 39.5234C138.876 39.0234 138.946 37.9531 139.061 36.3125C139.176 34.6667 139.233 33.3359 139.233 32.3203V32.0312C139.233 31.8229 139.113 31.6484 138.873 31.5078C138.639 31.3672 138.467 31.2969 138.358 31.2969C138.248 31.2969 138.194 31.276 138.194 31.2344V31.0469C138.194 31.0052 138.215 30.9844 138.256 30.9844H140.514C140.613 31 140.694 31.0573 140.756 31.1562L144.42 39.3203C144.446 39.3568 144.467 39.388 144.483 39.4141C144.498 39.4401 144.537 39.4531 144.6 39.4531C144.662 39.4479 144.709 39.401 144.741 39.3125L148.366 31.2969C148.475 31.0885 148.574 30.9844 148.662 30.9844H150.936C150.978 30.9844 150.998 31.0052 150.998 31.0469V31.2344C150.998 31.276 150.985 31.2969 150.959 31.2969C150.803 31.2969 150.61 31.349 150.381 31.4531C150.032 31.6094 149.858 31.8411 149.858 32.1484L150.327 40.7812C150.337 41.0521 150.478 41.2708 150.748 41.4375C151.019 41.6042 151.373 41.6875 151.811 41.6875C151.853 41.6875 151.873 41.7083 151.873 41.75V41.9375C151.873 41.9792 151.853 42 151.811 42H147.373C147.332 42 147.311 41.9792 147.311 41.9375V41.75C147.311 41.7083 147.332 41.6875 147.373 41.6875C148.306 41.6875 148.772 41.4609 148.772 41.0078L148.358 33.5469C148.353 33.4948 148.337 33.4688 148.311 33.4688C148.29 33.4688 148.272 33.4922 148.256 33.5391L144.373 41.9453C144.353 41.9818 144.293 42 144.194 42C144.095 42 144.037 41.9792 144.022 41.9375L140.194 33.5156C140.162 33.4427 140.131 33.4062 140.1 33.4062C140.074 33.4062 140.061 33.4635 140.061 33.5781C140.061 33.8177 139.998 34.9479 139.873 36.9688C139.748 38.9896 139.686 40.25 139.686 40.75V41.0703C139.748 41.3672 140.043 41.5599 140.569 41.6484C140.72 41.6745 140.879 41.6875 141.045 41.6875ZM160.384 40.7109C160.384 40.8464 160.447 40.9557 160.572 41.0391C160.702 41.1172 160.851 41.1562 161.017 41.1562C161.184 41.1562 161.322 41.1146 161.431 41.0312C161.546 40.9427 161.624 40.8984 161.666 40.8984C161.707 40.8984 161.728 40.9557 161.728 41.0703C161.728 41.1797 161.676 41.2734 161.572 41.3516C160.791 41.9245 160.262 42.2109 159.986 42.2109C159.653 42.2109 159.382 41.8646 159.173 41.1719C159.158 41.1198 159.145 41.0964 159.134 41.1016C158.489 41.5859 158.082 41.8776 157.916 41.9766C157.489 42.2214 157.059 42.2604 156.627 42.0938C156.199 41.9271 155.89 41.651 155.697 41.2656C155.603 41.0677 155.556 40.8568 155.556 40.6328C155.556 40.1901 155.72 39.8385 156.048 39.5781C156.377 39.3177 157.002 39.0677 157.923 38.8281C158.236 38.7448 158.515 38.638 158.759 38.5078C159.004 38.3776 159.132 38.2943 159.142 38.2578C159.158 38.2214 159.166 38.1875 159.166 38.1562V36.6562C159.166 36.0677 158.936 35.6536 158.478 35.4141C158.327 35.3359 158.145 35.2969 157.931 35.2969C157.723 35.2969 157.509 35.3802 157.291 35.5469C157.077 35.7135 156.97 35.9505 156.97 36.2578L157.009 36.5625C156.978 36.625 156.791 36.7292 156.447 36.875C156.103 37.0208 155.905 37.099 155.853 37.1094C155.77 37.1094 155.728 37.0104 155.728 36.8125C155.728 36.6094 155.788 36.3854 155.908 36.1406C156.028 35.8958 156.197 35.6719 156.416 35.4688C156.926 34.9948 157.509 34.7578 158.166 34.7578C158.822 34.7578 159.356 34.9401 159.767 35.3047C160.179 35.6641 160.384 36.0938 160.384 36.5938V40.7109ZM156.783 40.4844C156.783 40.7344 156.879 40.9531 157.072 41.1406C157.265 41.3229 157.483 41.4141 157.728 41.4141C157.978 41.4141 158.28 41.3099 158.634 41.1016C158.989 40.888 159.166 40.6693 159.166 40.4453V38.8594C159.166 38.8021 159.153 38.7734 159.127 38.7734C159.101 38.7734 159.082 38.776 159.072 38.7812L157.259 39.625C157.072 39.7604 156.944 39.875 156.877 39.9688C156.814 40.0625 156.783 40.2344 156.783 40.4844ZM169.067 36.6562C169.067 36.7708 169.023 36.8281 168.934 36.8281C168.851 36.8281 168.786 36.7656 168.739 36.6406C168.614 36.2969 168.427 35.9922 168.177 35.7266C167.932 35.4609 167.627 35.3281 167.262 35.3281C166.783 35.3281 166.46 35.5677 166.294 36.0469C166.242 36.2083 166.216 36.375 166.216 36.5469C166.216 36.7188 166.325 36.9115 166.544 37.125C166.762 37.3333 167.122 37.5833 167.622 37.875C168.122 38.1667 168.486 38.4141 168.716 38.6172C169.236 39.0807 169.497 39.6172 169.497 40.2266C169.497 40.8359 169.273 41.3203 168.825 41.6797C168.377 42.0339 167.856 42.2109 167.262 42.2109C166.945 42.2109 166.656 42.1667 166.395 42.0781C166.14 41.9948 165.992 41.9531 165.95 41.9531C165.914 41.9531 165.851 41.9948 165.762 42.0781C165.679 42.1667 165.611 42.2109 165.559 42.2109H165.427C165.395 42.2109 165.356 41.9297 165.309 41.3672C165.262 40.8047 165.239 40.4714 165.239 40.3672C165.239 40.263 165.247 40.2057 165.262 40.1953C165.283 40.1849 165.315 40.1797 165.356 40.1797C165.398 40.1797 165.432 40.1927 165.458 40.2188C165.489 40.2448 165.515 40.2786 165.536 40.3203C165.557 40.3568 165.572 40.3958 165.583 40.4375C165.598 40.4792 165.632 40.5573 165.684 40.6719C166.039 41.4271 166.585 41.8047 167.325 41.8047C167.653 41.8047 167.916 41.6849 168.114 41.4453C168.312 41.2005 168.411 40.9297 168.411 40.6328C168.411 40.3359 168.333 40.0859 168.177 39.8828C168.02 39.6797 167.825 39.4948 167.591 39.3281C167.361 39.1615 167.111 39 166.841 38.8438C165.789 38.2292 165.262 37.5495 165.262 36.8047C165.262 36.2474 165.502 35.7682 165.981 35.3672C166.46 34.9609 166.953 34.7578 167.458 34.7578C167.963 34.7578 168.335 34.8125 168.575 34.9219C168.82 35.0312 168.963 35.125 169.005 35.2031C169.046 35.276 169.067 35.5208 169.067 35.9375V36.6562ZM177.227 36.6562C177.227 36.7708 177.182 36.8281 177.094 36.8281C177.01 36.8281 176.945 36.7656 176.898 36.6406C176.773 36.2969 176.586 35.9922 176.336 35.7266C176.091 35.4609 175.786 35.3281 175.422 35.3281C174.943 35.3281 174.62 35.5677 174.453 36.0469C174.401 36.2083 174.375 36.375 174.375 36.5469C174.375 36.7188 174.484 36.9115 174.703 37.125C174.922 37.3333 175.281 37.5833 175.781 37.875C176.281 38.1667 176.646 38.4141 176.875 38.6172C177.396 39.0807 177.656 39.6172 177.656 40.2266C177.656 40.8359 177.432 41.3203 176.984 41.6797C176.536 42.0339 176.016 42.2109 175.422 42.2109C175.104 42.2109 174.815 42.1667 174.555 42.0781C174.299 41.9948 174.151 41.9531 174.109 41.9531C174.073 41.9531 174.01 41.9948 173.922 42.0781C173.839 42.1667 173.771 42.2109 173.719 42.2109H173.586C173.555 42.2109 173.516 41.9297 173.469 41.3672C173.422 40.8047 173.398 40.4714 173.398 40.3672C173.398 40.263 173.406 40.2057 173.422 40.1953C173.443 40.1849 173.474 40.1797 173.516 40.1797C173.557 40.1797 173.591 40.1927 173.617 40.2188C173.648 40.2448 173.674 40.2786 173.695 40.3203C173.716 40.3568 173.732 40.3958 173.742 40.4375C173.758 40.4792 173.792 40.5573 173.844 40.6719C174.198 41.4271 174.745 41.8047 175.484 41.8047C175.812 41.8047 176.076 41.6849 176.273 41.4453C176.471 41.2005 176.57 40.9297 176.57 40.6328C176.57 40.3359 176.492 40.0859 176.336 39.8828C176.18 39.6797 175.984 39.4948 175.75 39.3281C175.521 39.1615 175.271 39 175 38.8438C173.948 38.2292 173.422 37.5495 173.422 36.8047C173.422 36.2474 173.661 35.7682 174.141 35.3672C174.62 34.9609 175.112 34.7578 175.617 34.7578C176.122 34.7578 176.495 34.8125 176.734 34.9219C176.979 35.0312 177.122 35.125 177.164 35.2031C177.206 35.276 177.227 35.5208 177.227 35.9375V36.6562ZM186.425 40.7109C186.425 40.8464 186.488 40.9557 186.613 41.0391C186.743 41.1172 186.891 41.1562 187.058 41.1562C187.224 41.1562 187.363 41.1146 187.472 41.0312C187.586 40.9427 187.665 40.8984 187.706 40.8984C187.748 40.8984 187.769 40.9557 187.769 41.0703C187.769 41.1797 187.717 41.2734 187.613 41.3516C186.831 41.9245 186.303 42.2109 186.027 42.2109C185.693 42.2109 185.422 41.8646 185.214 41.1719C185.198 41.1198 185.185 41.0964 185.175 41.1016C184.529 41.5859 184.123 41.8776 183.956 41.9766C183.529 42.2214 183.099 42.2604 182.667 42.0938C182.24 41.9271 181.93 41.651 181.738 41.2656C181.644 41.0677 181.597 40.8568 181.597 40.6328C181.597 40.1901 181.761 39.8385 182.089 39.5781C182.417 39.3177 183.042 39.0677 183.964 38.8281C184.277 38.7448 184.555 38.638 184.8 38.5078C185.045 38.3776 185.172 38.2943 185.183 38.2578C185.198 38.2214 185.206 38.1875 185.206 38.1562V36.6562C185.206 36.0677 184.977 35.6536 184.519 35.4141C184.368 35.3359 184.185 35.2969 183.972 35.2969C183.764 35.2969 183.55 35.3802 183.331 35.5469C183.118 35.7135 183.011 35.9505 183.011 36.2578L183.05 36.5625C183.019 36.625 182.831 36.7292 182.488 36.875C182.144 37.0208 181.946 37.099 181.894 37.1094C181.81 37.1094 181.769 37.0104 181.769 36.8125C181.769 36.6094 181.829 36.3854 181.948 36.1406C182.068 35.8958 182.238 35.6719 182.456 35.4688C182.967 34.9948 183.55 34.7578 184.206 34.7578C184.863 34.7578 185.396 34.9401 185.808 35.3047C186.219 35.6641 186.425 36.0938 186.425 36.5938V40.7109ZM182.823 40.4844C182.823 40.7344 182.92 40.9531 183.113 41.1406C183.305 41.3229 183.524 41.4141 183.769 41.4141C184.019 41.4141 184.321 41.3099 184.675 41.1016C185.029 40.888 185.206 40.6693 185.206 40.4453V38.8594C185.206 38.8021 185.193 38.7734 185.167 38.7734C185.141 38.7734 185.123 38.776 185.113 38.7812L183.3 39.625C183.113 39.7604 182.985 39.875 182.917 39.9688C182.855 40.0625 182.823 40.2344 182.823 40.4844ZM197.17 35.5078C197.17 35.5078 197.868 35.4766 199.264 35.4141C199.384 35.4141 199.462 35.4271 199.498 35.4531C199.535 35.4792 199.574 35.5703 199.616 35.7266C199.657 35.8776 199.678 36.0208 199.678 36.1562C199.678 36.2917 199.665 36.3698 199.639 36.3906C199.613 36.4115 199.561 36.4219 199.483 36.4219H197.748C197.78 36.4792 197.814 36.5391 197.85 36.6016C197.886 36.6641 197.933 36.7682 197.991 36.9141C198.048 37.0599 198.077 37.2865 198.077 37.5938C198.077 37.8958 198.001 38.2135 197.85 38.5469C197.704 38.875 197.488 39.1667 197.202 39.4219C196.566 39.9948 195.743 40.2812 194.733 40.2812C194.467 40.2812 194.176 40.2318 193.858 40.1328C193.78 40.2161 193.676 40.2943 193.545 40.3672C193.415 40.4349 193.287 40.5052 193.162 40.5781C192.85 40.7552 192.694 40.9323 192.694 41.1094C192.694 41.5521 193.428 41.7786 194.897 41.7891C196.366 41.7995 197.329 41.849 197.787 41.9375C198.251 42.0208 198.61 42.1901 198.866 42.4453C199.267 42.8464 199.467 43.3047 199.467 43.8203C199.467 44.263 199.277 44.7188 198.897 45.1875C198.235 46.0156 197.225 46.5677 195.866 46.8438C195.381 46.9427 194.868 46.9922 194.327 46.9922C193.342 46.9922 192.595 46.8125 192.084 46.4531C191.574 46.099 191.319 45.6693 191.319 45.1641C191.319 44.888 191.384 44.6589 191.514 44.4766C191.644 44.2995 191.808 44.1302 192.006 43.9688C192.209 43.8125 192.431 43.6458 192.67 43.4688C192.91 43.2969 193.139 43.0755 193.358 42.8047C192.858 42.763 192.428 42.6042 192.069 42.3281C191.715 42.0521 191.537 41.7812 191.537 41.5156C191.537 41.25 191.608 41.0547 191.748 40.9297C191.889 40.7995 192.061 40.6901 192.264 40.6016C192.467 40.5078 192.681 40.4219 192.905 40.3438C193.129 40.2656 193.324 40.1641 193.491 40.0391C192.907 39.8099 192.457 39.4948 192.139 39.0938C191.821 38.6875 191.662 38.2448 191.662 37.7656C191.662 36.875 191.985 36.1484 192.631 35.5859C193.282 35.0234 194.066 34.7422 194.983 34.7422C195.899 34.7422 196.629 34.9974 197.17 35.5078ZM192.92 43.6562C192.801 43.776 192.702 43.9036 192.623 44.0391C192.545 44.1745 192.506 44.3438 192.506 44.5469C192.506 44.7552 192.579 44.9714 192.725 45.1953C192.876 45.4245 193.079 45.6302 193.334 45.8125C193.897 46.2292 194.574 46.4375 195.366 46.4375C196.157 46.4375 196.873 46.2057 197.514 45.7422C198.16 45.2839 198.483 44.7786 198.483 44.2266C198.483 43.6797 198.217 43.3125 197.686 43.125C197.436 43.0417 196.793 42.9896 195.756 42.9688C194.72 42.9479 194.048 42.9193 193.741 42.8828C193.605 43.0391 193.465 43.1771 193.319 43.2969C193.178 43.4167 193.045 43.5365 192.92 43.6562ZM196.795 37.5859C196.795 36.8516 196.61 36.2552 196.241 35.7969C195.876 35.3333 195.392 35.1016 194.787 35.1016C194.006 35.1016 193.454 35.4688 193.131 36.2031C193.006 36.4844 192.944 36.8073 192.944 37.1719C192.944 37.9167 193.097 38.5365 193.405 39.0312C193.78 39.625 194.272 39.9219 194.881 39.9219C195.491 39.9219 195.962 39.7161 196.295 39.3047C196.629 38.8932 196.795 38.3203 196.795 37.5859ZM204.345 37.8828C204.257 37.8828 204.212 38.0729 204.212 38.4531C204.212 39.2604 204.452 39.9375 204.931 40.4844C205.41 41.0312 206.004 41.3047 206.712 41.3047C207.426 41.3047 208.111 40.9974 208.767 40.3828C208.778 40.3724 208.791 40.3672 208.806 40.3672H208.845C208.877 40.3672 208.905 40.3932 208.931 40.4453C208.962 40.4922 208.991 40.5234 209.017 40.5391C208.413 41.2734 207.702 41.7812 206.884 42.0625C206.603 42.1615 206.285 42.2109 205.931 42.2109C205.577 42.2109 205.218 42.1146 204.853 41.9219C204.489 41.724 204.176 41.4661 203.916 41.1484C203.364 40.487 203.087 39.6641 203.087 38.6797C203.087 37.6901 203.387 36.7891 203.986 35.9766C204.59 35.1641 205.418 34.7578 206.47 34.7578C207.226 34.7578 207.843 35.0964 208.322 35.7734C208.801 36.4453 209.041 37.0365 209.041 37.5469C209.041 37.7708 208.986 37.8828 208.877 37.8828H204.345ZM204.431 37.1328C204.431 37.2318 204.478 37.2812 204.572 37.2812H207.517C207.653 37.2812 207.72 37.2005 207.72 37.0391C207.72 36.6641 207.551 36.2812 207.212 35.8906C206.879 35.4948 206.512 35.2969 206.111 35.2969C205.72 35.2969 205.364 35.474 205.041 35.8281C204.723 36.1823 204.52 36.5859 204.431 37.0391V37.1328Z" fill="white"/>
</g>
</svg>
